<?xml version="1.0" standalone="no"?>
<!DOCTYPE svg PUBLIC "-//W3C//DTD SVG 20010904//EN"
 "http://www.w3.org/TR/2001/REC-SVG-20010904/DTD/svg10.dtd">
<svg version="1.0" xmlns="http://www.w3.org/2000/svg"
 width="400.000000pt" height="517.000000pt" viewBox="0 0 400.000000 517.000000"
 preserveAspectRatio="xMidYMid meet">

<g transform="translate(0.000000,517.000000) scale(0.100000,-0.100000)"
fill="#000000" stroke="none">
<path d="M1867 4808 c-72 -25 -104 -68 -119 -160 -21 -129 -16 -177 27 -262
23 -44 58 -95 82 -117 24 -21 38 -39 33 -39 -5 0 -12 5 -15 10 -9 14 -25 12
-25 -3 0 -19 -37 -51 -87 -76 -98 -49 -31 -76 192 -76 123 0 167 3 190 15 43
22 44 46 2 59 -36 12 -69 43 -80 74 -6 17 -9 17 -29 3 -12 -9 -29 -16 -38 -16
-8 0 -1 7 17 16 50 25 112 106 137 182 35 102 39 137 21 171 -8 17 -15 46 -15
67 0 75 -62 143 -150 163 -60 14 -75 13 -143 -11z"/>
<path d="M1657 4123 c-13 -3 -16 -10 -12 -21 30 -72 25 -207 -17 -416 -20
-102 -20 -110 -4 -136 10 -18 21 -76 30 -151 11 -106 16 -125 35 -140 43 -35
100 -44 271 -44 138 1 174 4 220 20 51 19 55 22 58 55 5 61 44 244 54 258 11
13 9 31 -16 167 -8 44 -19 130 -25 190 -9 98 -8 127 10 194 5 17 -50 38 -60
23 -38 -62 -432 -71 -492 -11 -20 20 -21 20 -52 12z"/>
<path d="M1554 4086 c-42 -19 -60 -46 -90 -141 -42 -133 -64 -261 -75 -434 -5
-90 -12 -168 -15 -172 -15 -24 -22 -240 -13 -392 7 -118 7 -188 -1 -240 -23
-150 -23 -207 -1 -301 23 -94 53 -156 77 -156 18 0 18 22 -1 84 -8 27 -15 61
-15 75 l0 26 20 -25 20 -25 0 34 c0 19 -9 64 -20 101 -25 86 -26 99 -6 190 10
41 60 309 112 595 137 749 138 837 8 781z"/>
<path d="M2269 4073 c-15 -39 -5 -224 21 -358 11 -60 43 -234 70 -385 73 -410
119 -652 130 -683 7 -21 3 -48 -15 -112 -14 -47 -25 -100 -25 -118 1 -30 1
-31 15 -13 25 33 30 8 12 -62 -21 -81 -21 -92 -3 -92 25 0 54 53 76 141 19 73
21 97 14 184 -4 55 -8 233 -8 395 -1 185 -6 323 -13 370 -7 41 -17 140 -23
220 -14 200 -72 442 -118 493 -24 26 -66 47 -97 47 -19 0 -28 -7 -36 -27z"/>
<path d="M1670 3189 c0 -45 -7 -76 -31 -127 -25 -54 -29 -75 -25 -111 17 -131
192 -303 322 -317 42 -5 59 0 121 30 124 60 243 205 243 296 0 19 -14 64 -30
98 -23 50 -30 78 -30 127 l0 62 -39 -19 c-95 -47 -378 -47 -485 0 l-46 21 0
-60z"/>
<path d="M1582 2908 c-40 -103 -49 -401 -18 -643 20 -160 66 -401 97 -508 18
-61 22 -103 24 -282 3 -219 19 -337 91 -700 26 -126 26 -131 9 -190 -9 -33
-27 -74 -41 -92 -48 -63 -18 -93 92 -93 74 0 84 16 84 142 0 53 -5 108 -11
122 -9 20 -7 95 11 333 22 291 23 341 16 918 -7 647 -10 715 -33 715 -8 0 -40
12 -71 27 -76 36 -169 130 -209 213 -31 64 -31 64 -41 38z"/>
<path d="M2290 2873 c-45 -104 -164 -209 -281 -246 -21 -7 -27 -147 -35 -822
-5 -471 -4 -518 19 -810 22 -269 23 -314 11 -337 -9 -17 -14 -60 -14 -121 0
-86 2 -95 25 -117 22 -20 31 -22 91 -17 40 3 72 11 81 20 14 14 14 19 -6 49
-59 92 -74 162 -55 246 8 33 32 162 55 288 39 214 41 243 44 441 3 198 5 219
33 330 75 291 105 516 106 793 1 178 -2 227 -18 288 -10 39 -21 72 -25 72 -3
0 -17 -26 -31 -57z"/>
</g>
</svg>
